<svg width="400" height="110" viewBox="0 0 400 110" xmlns="http://www.w3.org/2000/svg">

  <!-- Cercle bleu -->
  <circle cx="55" cy="55" r="47" fill="#1A5C9E"/>

  <!-- Éclair blanc -->
  <polygon points="48,20 33,56 50,56 34,90 64,54 47,54 63,20" fill="white"/>

  <!-- Soleil vert -->
  <circle cx="78" cy="32" r="4" fill="#5DCAA5"/>
  <line x1="78" y1="25" x2="78" y2="23" stroke="#5DCAA5" stroke-width="1.5" stroke-linecap="round"/>
  <line x1="78" y1="39" x2="78" y2="41" stroke="#5DCAA5" stroke-width="1.5" stroke-linecap="round"/>
  <line x1="71" y1="32" x2="69" y2="32" stroke="#5DCAA5" stroke-width="1.5" stroke-linecap="round"/>
  <line x1="85" y1="32" x2="87" y2="32" stroke="#5DCAA5" stroke-width="1.5" stroke-linecap="round"/>
  <line x1="73" y1="27" x2="71" y2="25" stroke="#5DCAA5" stroke-width="1.5" stroke-linecap="round"/>
  <line x1="83" y1="37" x2="85" y2="39" stroke="#5DCAA5" stroke-width="1.5" stroke-linecap="round"/>
  <line x1="83" y1="27" x2="85" y2="25" stroke="#5DCAA5" stroke-width="1.5" stroke-linecap="round"/>
  <line x1="73" y1="37" x2="71" y2="39" stroke="#5DCAA5" stroke-width="1.5" stroke-linecap="round"/>

  <!-- Texte Volt- en bleu -->
  <text x="116" y="70" font-family="system-ui, sans-serif" font-size="54" font-weight="800" fill="#0C447C" letter-spacing="-1">Volt-</text>

  <!-- Texte IQ en vert -->
  <text x="245" y="70" font-family="system-ui, sans-serif" font-size="54" font-weight="800" fill="#5DCAA5" letter-spacing="-1">IQ</text>

  <!-- Sous-titre -->
  <text x="116" y="91" font-family="system-ui, sans-serif" font-size="11" font-weight="400" fill="#A0A098" letter-spacing="4">ENERGY MANAGEMENT</text>

</svg>
